<mxfile host="app.diagrams.net" modified="2024-03-29T23:53:24.721Z" agent="Mozilla/5.0 (Windows NT 10.0; Win64; x64) AppleWebKit/537.36 (KHTML, like Gecko) Chrome/122.0.0.0 Safari/537.36" etag="w7yQMUwZcDy_JqvhASpm" version="24.2.1" type="github">
  <diagram id="R2lEEEUBdFMjLlhIrx00" name="Page-1">
    <mxGraphModel dx="764" dy="1903" grid="1" gridSize="10" guides="1" tooltips="1" connect="1" arrows="1" fold="1" page="1" pageScale="1" pageWidth="850" pageHeight="1100" math="0" shadow="0" extFonts="Permanent Marker^https://fonts.googleapis.com/css?family=Permanent+Marker">
      <root>
        <mxCell id="0" />
        <mxCell id="1" parent="0" />
        <mxCell id="9K0rHRhIe5Y1cG8BqN-u-25" style="edgeStyle=orthogonalEdgeStyle;rounded=0;orthogonalLoop=1;jettySize=auto;html=1;exitX=0.5;exitY=0;exitDx=0;exitDy=0;entryX=0.5;entryY=1;entryDx=0;entryDy=0;endArrow=none;endFill=0;" edge="1" parent="1" source="9K0rHRhIe5Y1cG8BqN-u-11" target="9K0rHRhIe5Y1cG8BqN-u-18">
          <mxGeometry relative="1" as="geometry" />
        </mxCell>
        <mxCell id="9K0rHRhIe5Y1cG8BqN-u-11" value="Medico" style="rounded=1;arcSize=10;whiteSpace=wrap;html=1;align=center;" vertex="1" parent="1">
          <mxGeometry x="400" y="400" width="100" height="40" as="geometry" />
        </mxCell>
        <mxCell id="9K0rHRhIe5Y1cG8BqN-u-26" style="edgeStyle=orthogonalEdgeStyle;rounded=0;orthogonalLoop=1;jettySize=auto;html=1;exitX=0.5;exitY=1;exitDx=0;exitDy=0;entryX=0.5;entryY=0;entryDx=0;entryDy=0;endArrow=none;endFill=0;" edge="1" parent="1" source="9K0rHRhIe5Y1cG8BqN-u-13" target="9K0rHRhIe5Y1cG8BqN-u-18">
          <mxGeometry relative="1" as="geometry" />
        </mxCell>
        <mxCell id="9K0rHRhIe5Y1cG8BqN-u-27" style="edgeStyle=orthogonalEdgeStyle;rounded=0;orthogonalLoop=1;jettySize=auto;html=1;exitX=0;exitY=0.5;exitDx=0;exitDy=0;entryX=1;entryY=0.5;entryDx=0;entryDy=0;endArrow=none;endFill=0;" edge="1" parent="1" source="9K0rHRhIe5Y1cG8BqN-u-13" target="9K0rHRhIe5Y1cG8BqN-u-20">
          <mxGeometry relative="1" as="geometry" />
        </mxCell>
        <mxCell id="9K0rHRhIe5Y1cG8BqN-u-13" value="Consulta" style="rounded=1;arcSize=10;whiteSpace=wrap;html=1;align=center;" vertex="1" parent="1">
          <mxGeometry x="400" y="100" width="100" height="40" as="geometry" />
        </mxCell>
        <mxCell id="9K0rHRhIe5Y1cG8BqN-u-21" style="edgeStyle=orthogonalEdgeStyle;rounded=0;orthogonalLoop=1;jettySize=auto;html=1;exitX=0.5;exitY=1;exitDx=0;exitDy=0;endArrow=none;endFill=0;" edge="1" parent="1" source="9K0rHRhIe5Y1cG8BqN-u-14" target="9K0rHRhIe5Y1cG8BqN-u-17">
          <mxGeometry relative="1" as="geometry" />
        </mxCell>
        <mxCell id="9K0rHRhIe5Y1cG8BqN-u-28" style="edgeStyle=orthogonalEdgeStyle;rounded=0;orthogonalLoop=1;jettySize=auto;html=1;exitX=1;exitY=0.5;exitDx=0;exitDy=0;entryX=0;entryY=0.5;entryDx=0;entryDy=0;endArrow=none;endFill=0;" edge="1" parent="1" source="9K0rHRhIe5Y1cG8BqN-u-14" target="9K0rHRhIe5Y1cG8BqN-u-20">
          <mxGeometry relative="1" as="geometry" />
        </mxCell>
        <mxCell id="9K0rHRhIe5Y1cG8BqN-u-14" value="Paciente" style="rounded=1;arcSize=10;whiteSpace=wrap;html=1;align=center;" vertex="1" parent="1">
          <mxGeometry x="120" y="100" width="100" height="40" as="geometry" />
        </mxCell>
        <mxCell id="9K0rHRhIe5Y1cG8BqN-u-23" style="edgeStyle=orthogonalEdgeStyle;rounded=0;orthogonalLoop=1;jettySize=auto;html=1;exitX=1;exitY=0.5;exitDx=0;exitDy=0;entryX=0;entryY=0.5;entryDx=0;entryDy=0;endArrow=none;endFill=0;" edge="1" parent="1" source="9K0rHRhIe5Y1cG8BqN-u-15" target="9K0rHRhIe5Y1cG8BqN-u-19">
          <mxGeometry relative="1" as="geometry" />
        </mxCell>
        <mxCell id="9K0rHRhIe5Y1cG8BqN-u-15" value="Convenio" style="rounded=1;arcSize=10;whiteSpace=wrap;html=1;align=center;" vertex="1" parent="1">
          <mxGeometry x="120" y="400" width="100" height="40" as="geometry" />
        </mxCell>
        <mxCell id="9K0rHRhIe5Y1cG8BqN-u-22" style="edgeStyle=orthogonalEdgeStyle;rounded=0;orthogonalLoop=1;jettySize=auto;html=1;exitX=0.5;exitY=1;exitDx=0;exitDy=0;entryX=0.5;entryY=0;entryDx=0;entryDy=0;endArrow=none;endFill=0;" edge="1" parent="1" source="9K0rHRhIe5Y1cG8BqN-u-17" target="9K0rHRhIe5Y1cG8BqN-u-15">
          <mxGeometry relative="1" as="geometry" />
        </mxCell>
        <mxCell id="9K0rHRhIe5Y1cG8BqN-u-17" value="Possui" style="shape=rhombus;perimeter=rhombusPerimeter;whiteSpace=wrap;html=1;align=center;" vertex="1" parent="1">
          <mxGeometry x="110" y="240" width="120" height="60" as="geometry" />
        </mxCell>
        <mxCell id="9K0rHRhIe5Y1cG8BqN-u-18" value="Realiza" style="shape=rhombus;perimeter=rhombusPerimeter;whiteSpace=wrap;html=1;align=center;" vertex="1" parent="1">
          <mxGeometry x="390" y="240" width="120" height="60" as="geometry" />
        </mxCell>
        <mxCell id="9K0rHRhIe5Y1cG8BqN-u-19" value="Atende" style="shape=rhombus;perimeter=rhombusPerimeter;whiteSpace=wrap;html=1;align=center;" vertex="1" parent="1">
          <mxGeometry x="250" y="390" width="120" height="60" as="geometry" />
        </mxCell>
        <mxCell id="9K0rHRhIe5Y1cG8BqN-u-20" value="Marca" style="shape=rhombus;perimeter=rhombusPerimeter;whiteSpace=wrap;html=1;align=center;" vertex="1" parent="1">
          <mxGeometry x="250" y="90" width="120" height="60" as="geometry" />
        </mxCell>
        <mxCell id="9K0rHRhIe5Y1cG8BqN-u-24" style="edgeStyle=orthogonalEdgeStyle;rounded=0;orthogonalLoop=1;jettySize=auto;html=1;exitX=0;exitY=0.5;exitDx=0;exitDy=0;endArrow=none;endFill=0;" edge="1" parent="1" source="9K0rHRhIe5Y1cG8BqN-u-11">
          <mxGeometry relative="1" as="geometry">
            <mxPoint x="370" y="420" as="targetPoint" />
          </mxGeometry>
        </mxCell>
        <mxCell id="9K0rHRhIe5Y1cG8BqN-u-31" value="(1, 1)" style="text;strokeColor=none;fillColor=none;spacingLeft=4;spacingRight=4;overflow=hidden;rotatable=0;points=[[0,0.5],[1,0.5]];portConstraint=eastwest;fontSize=12;whiteSpace=wrap;html=1;" vertex="1" parent="1">
          <mxGeometry x="170" y="140" width="40" height="30" as="geometry" />
        </mxCell>
        <mxCell id="9K0rHRhIe5Y1cG8BqN-u-32" value="(1, 1)" style="text;strokeColor=none;fillColor=none;spacingLeft=4;spacingRight=4;overflow=hidden;rotatable=0;points=[[0,0.5],[1,0.5]];portConstraint=eastwest;fontSize=12;whiteSpace=wrap;html=1;" vertex="1" parent="1">
          <mxGeometry x="220" y="120" width="40" height="30" as="geometry" />
        </mxCell>
        <mxCell id="9K0rHRhIe5Y1cG8BqN-u-33" value="(1, 1)" style="text;strokeColor=none;fillColor=none;spacingLeft=4;spacingRight=4;overflow=hidden;rotatable=0;points=[[0,0.5],[1,0.5]];portConstraint=eastwest;fontSize=12;whiteSpace=wrap;html=1;" vertex="1" parent="1">
          <mxGeometry x="410" y="370" width="40" height="30" as="geometry" />
        </mxCell>
        <mxCell id="9K0rHRhIe5Y1cG8BqN-u-34" value="(1, 1)" style="text;strokeColor=none;fillColor=none;spacingLeft=4;spacingRight=4;overflow=hidden;rotatable=0;points=[[0,0.5],[1,0.5]];portConstraint=eastwest;fontSize=12;whiteSpace=wrap;html=1;" vertex="1" parent="1">
          <mxGeometry x="360" y="390" width="40" height="30" as="geometry" />
        </mxCell>
        <mxCell id="9K0rHRhIe5Y1cG8BqN-u-35" value="(0, n)" style="text;strokeColor=none;fillColor=none;spacingLeft=4;spacingRight=4;overflow=hidden;rotatable=0;points=[[0,0.5],[1,0.5]];portConstraint=eastwest;fontSize=12;whiteSpace=wrap;html=1;" vertex="1" parent="1">
          <mxGeometry x="220" y="390" width="40" height="30" as="geometry" />
        </mxCell>
        <mxCell id="9K0rHRhIe5Y1cG8BqN-u-36" value="(0, n)" style="text;strokeColor=none;fillColor=none;spacingLeft=4;spacingRight=4;overflow=hidden;rotatable=0;points=[[0,0.5],[1,0.5]];portConstraint=eastwest;fontSize=12;whiteSpace=wrap;html=1;" vertex="1" parent="1">
          <mxGeometry x="170" y="370" width="40" height="30" as="geometry" />
        </mxCell>
        <mxCell id="9K0rHRhIe5Y1cG8BqN-u-37" value="(0, n)" style="text;strokeColor=none;fillColor=none;spacingLeft=4;spacingRight=4;overflow=hidden;rotatable=0;points=[[0,0.5],[1,0.5]];portConstraint=eastwest;fontSize=12;whiteSpace=wrap;html=1;" vertex="1" parent="1">
          <mxGeometry x="360" y="120" width="40" height="30" as="geometry" />
        </mxCell>
        <mxCell id="9K0rHRhIe5Y1cG8BqN-u-38" value="(0, n)" style="text;strokeColor=none;fillColor=none;spacingLeft=4;spacingRight=4;overflow=hidden;rotatable=0;points=[[0,0.5],[1,0.5]];portConstraint=eastwest;fontSize=12;whiteSpace=wrap;html=1;" vertex="1" parent="1">
          <mxGeometry x="410" y="140" width="40" height="30" as="geometry" />
        </mxCell>
        <mxCell id="9K0rHRhIe5Y1cG8BqN-u-39" value="idConvenio (PK)" style="text;strokeColor=none;fillColor=none;spacingLeft=4;spacingRight=4;overflow=hidden;rotatable=0;points=[[0,0.5],[1,0.5]];portConstraint=eastwest;fontSize=12;whiteSpace=wrap;html=1;" vertex="1" parent="1">
          <mxGeometry x="153" y="444" width="100" height="30" as="geometry" />
        </mxCell>
        <mxCell id="9K0rHRhIe5Y1cG8BqN-u-40" value="empresa" style="text;strokeColor=none;fillColor=none;spacingLeft=4;spacingRight=4;overflow=hidden;rotatable=0;points=[[0,0.5],[1,0.5]];portConstraint=eastwest;fontSize=12;whiteSpace=wrap;html=1;" vertex="1" parent="1">
          <mxGeometry x="153" y="464" width="100" height="30" as="geometry" />
        </mxCell>
        <mxCell id="9K0rHRhIe5Y1cG8BqN-u-41" value="tipo" style="text;strokeColor=none;fillColor=none;spacingLeft=4;spacingRight=4;overflow=hidden;rotatable=0;points=[[0,0.5],[1,0.5]];portConstraint=eastwest;fontSize=12;whiteSpace=wrap;html=1;" vertex="1" parent="1">
          <mxGeometry x="153" y="484" width="100" height="30" as="geometry" />
        </mxCell>
        <mxCell id="9K0rHRhIe5Y1cG8BqN-u-42" value="vencimento&lt;span style=&quot;color: rgba(0, 0, 0, 0); font-family: monospace; font-size: 0px; text-wrap: nowrap;&quot;&gt;%3CmxGraphModel%3E%3Croot%3E%3CmxCell%20id%3D%220%22%2F%3E%3CmxCell%20id%3D%221%22%20parent%3D%220%22%2F%3E%3CmxCell%20id%3D%222%22%20value%3D%22idConvenio%20(PK)%22%20style%3D%22text%3BstrokeColor%3Dnone%3BfillColor%3Dnone%3BspacingLeft%3D4%3BspacingRight%3D4%3Boverflow%3Dhidden%3Brotatable%3D0%3Bpoints%3D%5B%5B0%2C0.5%5D%2C%5B1%2C0.5%5D%5D%3BportConstraint%3Deastwest%3BfontSize%3D12%3BwhiteSpace%3Dwrap%3Bhtml%3D1%3B%22%20vertex%3D%221%22%20parent%3D%221%22%3E%3CmxGeometry%20x%3D%22140%22%20y%3D%22440%22%20width%3D%22100%22%20height%3D%2230%22%20as%3D%22geometry%22%2F%3E%3C%2FmxCell%3E%3C%2Froot%3E%3C%2FmxGraphModel%3E&lt;/span&gt;" style="text;strokeColor=none;fillColor=none;spacingLeft=4;spacingRight=4;overflow=hidden;rotatable=0;points=[[0,0.5],[1,0.5]];portConstraint=eastwest;fontSize=12;whiteSpace=wrap;html=1;" vertex="1" parent="1">
          <mxGeometry x="153" y="504" width="100" height="30" as="geometry" />
        </mxCell>
        <mxCell id="9K0rHRhIe5Y1cG8BqN-u-43" value="percentualCoparticipacao" style="text;strokeColor=none;fillColor=none;spacingLeft=4;spacingRight=4;overflow=hidden;rotatable=0;points=[[0,0.5],[1,0.5]];portConstraint=eastwest;fontSize=12;whiteSpace=wrap;html=1;" vertex="1" parent="1">
          <mxGeometry x="153" y="524" width="150" height="30" as="geometry" />
        </mxCell>
        <mxCell id="9K0rHRhIe5Y1cG8BqN-u-44" value="CRM (FK)" style="text;strokeColor=none;fillColor=none;spacingLeft=4;spacingRight=4;overflow=hidden;rotatable=0;points=[[0,0.5],[1,0.5]];portConstraint=eastwest;fontSize=12;whiteSpace=wrap;html=1;" vertex="1" parent="1">
          <mxGeometry x="153" y="544" width="100" height="30" as="geometry" />
        </mxCell>
        <mxCell id="9K0rHRhIe5Y1cG8BqN-u-45" value="cpfPaciente (FK)" style="text;strokeColor=none;fillColor=none;spacingLeft=4;spacingRight=4;overflow=hidden;rotatable=0;points=[[0,0.5],[1,0.5]];portConstraint=eastwest;fontSize=12;whiteSpace=wrap;html=1;" vertex="1" parent="1">
          <mxGeometry x="153" y="564" width="100" height="30" as="geometry" />
        </mxCell>
        <mxCell id="9K0rHRhIe5Y1cG8BqN-u-58" value="" style="endArrow=oval;html=1;rounded=0;endFill=1;" edge="1" parent="1">
          <mxGeometry relative="1" as="geometry">
            <mxPoint x="130" y="459.14" as="sourcePoint" />
            <mxPoint x="150" y="458.84999999999997" as="targetPoint" />
          </mxGeometry>
        </mxCell>
        <mxCell id="9K0rHRhIe5Y1cG8BqN-u-59" value="" style="endArrow=oval;html=1;rounded=0;endFill=0;" edge="1" parent="1">
          <mxGeometry relative="1" as="geometry">
            <mxPoint x="130" y="479.15" as="sourcePoint" />
            <mxPoint x="150" y="478.85999999999996" as="targetPoint" />
          </mxGeometry>
        </mxCell>
        <mxCell id="9K0rHRhIe5Y1cG8BqN-u-60" value="" style="endArrow=oval;html=1;rounded=0;endFill=0;" edge="1" parent="1">
          <mxGeometry relative="1" as="geometry">
            <mxPoint x="130" y="499.15" as="sourcePoint" />
            <mxPoint x="150" y="498.85999999999996" as="targetPoint" />
          </mxGeometry>
        </mxCell>
        <mxCell id="9K0rHRhIe5Y1cG8BqN-u-61" value="" style="endArrow=oval;html=1;rounded=0;endFill=0;" edge="1" parent="1">
          <mxGeometry relative="1" as="geometry">
            <mxPoint x="130" y="519.15" as="sourcePoint" />
            <mxPoint x="150" y="518.8599999999999" as="targetPoint" />
          </mxGeometry>
        </mxCell>
        <mxCell id="9K0rHRhIe5Y1cG8BqN-u-62" value="" style="endArrow=oval;html=1;rounded=0;endFill=0;" edge="1" parent="1">
          <mxGeometry relative="1" as="geometry">
            <mxPoint x="130" y="539.15" as="sourcePoint" />
            <mxPoint x="150" y="538.8599999999999" as="targetPoint" />
          </mxGeometry>
        </mxCell>
        <mxCell id="9K0rHRhIe5Y1cG8BqN-u-63" value="" style="endArrow=oval;html=1;rounded=0;endFill=0;" edge="1" parent="1">
          <mxGeometry relative="1" as="geometry">
            <mxPoint x="130" y="559.15" as="sourcePoint" />
            <mxPoint x="150" y="558.8599999999999" as="targetPoint" />
          </mxGeometry>
        </mxCell>
        <mxCell id="9K0rHRhIe5Y1cG8BqN-u-64" value="" style="endArrow=oval;html=1;rounded=0;endFill=0;" edge="1" parent="1">
          <mxGeometry relative="1" as="geometry">
            <mxPoint x="130" y="579.15" as="sourcePoint" />
            <mxPoint x="150" y="578.8599999999999" as="targetPoint" />
          </mxGeometry>
        </mxCell>
        <mxCell id="9K0rHRhIe5Y1cG8BqN-u-66" value="" style="endArrow=none;html=1;rounded=0;entryX=0.101;entryY=1.006;entryDx=0;entryDy=0;entryPerimeter=0;" edge="1" parent="1">
          <mxGeometry width="50" height="50" relative="1" as="geometry">
            <mxPoint x="130" y="580" as="sourcePoint" />
            <mxPoint x="130.1" y="440.24" as="targetPoint" />
          </mxGeometry>
        </mxCell>
        <mxCell id="9K0rHRhIe5Y1cG8BqN-u-67" value="CRM (PK)" style="text;strokeColor=none;fillColor=none;spacingLeft=4;spacingRight=4;overflow=hidden;rotatable=0;points=[[0,0.5],[1,0.5]];portConstraint=eastwest;fontSize=12;whiteSpace=wrap;html=1;" vertex="1" parent="1">
          <mxGeometry x="433" y="443.76" width="100" height="30" as="geometry" />
        </mxCell>
        <mxCell id="9K0rHRhIe5Y1cG8BqN-u-68" value="especialidade" style="text;strokeColor=none;fillColor=none;spacingLeft=4;spacingRight=4;overflow=hidden;rotatable=0;points=[[0,0.5],[1,0.5]];portConstraint=eastwest;fontSize=12;whiteSpace=wrap;html=1;" vertex="1" parent="1">
          <mxGeometry x="433" y="463.76" width="100" height="30" as="geometry" />
        </mxCell>
        <mxCell id="9K0rHRhIe5Y1cG8BqN-u-69" value="nome" style="text;strokeColor=none;fillColor=none;spacingLeft=4;spacingRight=4;overflow=hidden;rotatable=0;points=[[0,0.5],[1,0.5]];portConstraint=eastwest;fontSize=12;whiteSpace=wrap;html=1;" vertex="1" parent="1">
          <mxGeometry x="433" y="483.76" width="100" height="30" as="geometry" />
        </mxCell>
        <mxCell id="9K0rHRhIe5Y1cG8BqN-u-70" value="telefone" style="text;strokeColor=none;fillColor=none;spacingLeft=4;spacingRight=4;overflow=hidden;rotatable=0;points=[[0,0.5],[1,0.5]];portConstraint=eastwest;fontSize=12;whiteSpace=wrap;html=1;" vertex="1" parent="1">
          <mxGeometry x="433" y="503.76" width="100" height="30" as="geometry" />
        </mxCell>
        <mxCell id="9K0rHRhIe5Y1cG8BqN-u-71" value="email" style="text;strokeColor=none;fillColor=none;spacingLeft=4;spacingRight=4;overflow=hidden;rotatable=0;points=[[0,0.5],[1,0.5]];portConstraint=eastwest;fontSize=12;whiteSpace=wrap;html=1;" vertex="1" parent="1">
          <mxGeometry x="433" y="523.76" width="150" height="30" as="geometry" />
        </mxCell>
        <mxCell id="9K0rHRhIe5Y1cG8BqN-u-72" value="endereco" style="text;strokeColor=none;fillColor=none;spacingLeft=4;spacingRight=4;overflow=hidden;rotatable=0;points=[[0,0.5],[1,0.5]];portConstraint=eastwest;fontSize=12;whiteSpace=wrap;html=1;" vertex="1" parent="1">
          <mxGeometry x="433" y="543.76" width="100" height="30" as="geometry" />
        </mxCell>
        <mxCell id="9K0rHRhIe5Y1cG8BqN-u-74" value="" style="endArrow=oval;html=1;rounded=0;endFill=1;" edge="1" parent="1">
          <mxGeometry relative="1" as="geometry">
            <mxPoint x="410" y="458.9" as="sourcePoint" />
            <mxPoint x="430" y="458.60999999999996" as="targetPoint" />
          </mxGeometry>
        </mxCell>
        <mxCell id="9K0rHRhIe5Y1cG8BqN-u-75" value="" style="endArrow=oval;html=1;rounded=0;endFill=0;" edge="1" parent="1">
          <mxGeometry relative="1" as="geometry">
            <mxPoint x="410" y="478.90999999999997" as="sourcePoint" />
            <mxPoint x="430" y="478.61999999999995" as="targetPoint" />
          </mxGeometry>
        </mxCell>
        <mxCell id="9K0rHRhIe5Y1cG8BqN-u-76" value="" style="endArrow=oval;html=1;rounded=0;endFill=0;" edge="1" parent="1">
          <mxGeometry relative="1" as="geometry">
            <mxPoint x="410" y="498.90999999999997" as="sourcePoint" />
            <mxPoint x="430" y="498.61999999999995" as="targetPoint" />
          </mxGeometry>
        </mxCell>
        <mxCell id="9K0rHRhIe5Y1cG8BqN-u-77" value="" style="endArrow=oval;html=1;rounded=0;endFill=0;" edge="1" parent="1">
          <mxGeometry relative="1" as="geometry">
            <mxPoint x="410" y="518.91" as="sourcePoint" />
            <mxPoint x="430" y="518.6199999999999" as="targetPoint" />
          </mxGeometry>
        </mxCell>
        <mxCell id="9K0rHRhIe5Y1cG8BqN-u-78" value="" style="endArrow=oval;html=1;rounded=0;endFill=0;" edge="1" parent="1">
          <mxGeometry relative="1" as="geometry">
            <mxPoint x="410" y="538.91" as="sourcePoint" />
            <mxPoint x="430" y="538.6199999999999" as="targetPoint" />
          </mxGeometry>
        </mxCell>
        <mxCell id="9K0rHRhIe5Y1cG8BqN-u-79" value="" style="endArrow=oval;html=1;rounded=0;endFill=0;" edge="1" parent="1">
          <mxGeometry relative="1" as="geometry">
            <mxPoint x="410" y="558.91" as="sourcePoint" />
            <mxPoint x="430" y="558.6199999999999" as="targetPoint" />
          </mxGeometry>
        </mxCell>
        <mxCell id="9K0rHRhIe5Y1cG8BqN-u-81" value="" style="endArrow=none;html=1;rounded=0;entryX=0.101;entryY=1.006;entryDx=0;entryDy=0;entryPerimeter=0;" edge="1" parent="1">
          <mxGeometry width="50" height="50" relative="1" as="geometry">
            <mxPoint x="410" y="560" as="sourcePoint" />
            <mxPoint x="410.1" y="440" as="targetPoint" />
          </mxGeometry>
        </mxCell>
        <mxCell id="9K0rHRhIe5Y1cG8BqN-u-97" value="idConsulta (PK)" style="text;strokeColor=none;fillColor=none;spacingLeft=4;spacingRight=4;overflow=hidden;rotatable=0;points=[[0,0.5],[1,0.5]];portConstraint=eastwest;fontSize=12;whiteSpace=wrap;html=1;" vertex="1" parent="1">
          <mxGeometry x="433" y="-7" width="100" height="30" as="geometry" />
        </mxCell>
        <mxCell id="9K0rHRhIe5Y1cG8BqN-u-98" value="data" style="text;strokeColor=none;fillColor=none;spacingLeft=4;spacingRight=4;overflow=hidden;rotatable=0;points=[[0,0.5],[1,0.5]];portConstraint=eastwest;fontSize=12;whiteSpace=wrap;html=1;" vertex="1" parent="1">
          <mxGeometry x="433" y="13" width="100" height="30" as="geometry" />
        </mxCell>
        <mxCell id="9K0rHRhIe5Y1cG8BqN-u-99" value="horario" style="text;strokeColor=none;fillColor=none;spacingLeft=4;spacingRight=4;overflow=hidden;rotatable=0;points=[[0,0.5],[1,0.5]];portConstraint=eastwest;fontSize=12;whiteSpace=wrap;html=1;" vertex="1" parent="1">
          <mxGeometry x="433" y="33" width="100" height="30" as="geometry" />
        </mxCell>
        <mxCell id="9K0rHRhIe5Y1cG8BqN-u-102" value="crmMedico (FK)" style="text;strokeColor=none;fillColor=none;spacingLeft=4;spacingRight=4;overflow=hidden;rotatable=0;points=[[0,0.5],[1,0.5]];portConstraint=eastwest;fontSize=12;whiteSpace=wrap;html=1;" vertex="1" parent="1">
          <mxGeometry x="433" y="54" width="100" height="30" as="geometry" />
        </mxCell>
        <mxCell id="9K0rHRhIe5Y1cG8BqN-u-103" value="cpfPaciente (FK)" style="text;strokeColor=none;fillColor=none;spacingLeft=4;spacingRight=4;overflow=hidden;rotatable=0;points=[[0,0.5],[1,0.5]];portConstraint=eastwest;fontSize=12;whiteSpace=wrap;html=1;" vertex="1" parent="1">
          <mxGeometry x="433" y="74.00000000000001" width="100" height="30" as="geometry" />
        </mxCell>
        <mxCell id="9K0rHRhIe5Y1cG8BqN-u-104" value="" style="endArrow=oval;html=1;rounded=0;endFill=1;" edge="1" parent="1">
          <mxGeometry relative="1" as="geometry">
            <mxPoint x="410" y="8.139999999999986" as="sourcePoint" />
            <mxPoint x="430" y="7.849999999999966" as="targetPoint" />
          </mxGeometry>
        </mxCell>
        <mxCell id="9K0rHRhIe5Y1cG8BqN-u-105" value="" style="endArrow=oval;html=1;rounded=0;endFill=0;" edge="1" parent="1">
          <mxGeometry relative="1" as="geometry">
            <mxPoint x="410" y="28.149999999999977" as="sourcePoint" />
            <mxPoint x="430" y="27.859999999999957" as="targetPoint" />
          </mxGeometry>
        </mxCell>
        <mxCell id="9K0rHRhIe5Y1cG8BqN-u-106" value="" style="endArrow=oval;html=1;rounded=0;endFill=0;" edge="1" parent="1">
          <mxGeometry relative="1" as="geometry">
            <mxPoint x="410" y="48.14999999999998" as="sourcePoint" />
            <mxPoint x="430" y="47.85999999999996" as="targetPoint" />
          </mxGeometry>
        </mxCell>
        <mxCell id="9K0rHRhIe5Y1cG8BqN-u-109" value="" style="endArrow=oval;html=1;rounded=0;endFill=0;" edge="1" parent="1">
          <mxGeometry relative="1" as="geometry">
            <mxPoint x="410" y="69.14999999999999" as="sourcePoint" />
            <mxPoint x="430" y="68.85999999999991" as="targetPoint" />
          </mxGeometry>
        </mxCell>
        <mxCell id="9K0rHRhIe5Y1cG8BqN-u-110" value="" style="endArrow=oval;html=1;rounded=0;endFill=0;" edge="1" parent="1">
          <mxGeometry relative="1" as="geometry">
            <mxPoint x="410" y="89.14999999999999" as="sourcePoint" />
            <mxPoint x="430" y="88.85999999999991" as="targetPoint" />
          </mxGeometry>
        </mxCell>
        <mxCell id="9K0rHRhIe5Y1cG8BqN-u-111" value="" style="endArrow=none;html=1;rounded=0;" edge="1" parent="1">
          <mxGeometry width="50" height="50" relative="1" as="geometry">
            <mxPoint x="410" y="100.00000000000001" as="sourcePoint" />
            <mxPoint x="410" y="8" as="targetPoint" />
          </mxGeometry>
        </mxCell>
        <mxCell id="9K0rHRhIe5Y1cG8BqN-u-112" value="rua" style="text;strokeColor=none;fillColor=none;spacingLeft=4;spacingRight=4;overflow=hidden;rotatable=0;points=[[0,0.5],[1,0.5]];portConstraint=eastwest;fontSize=12;whiteSpace=wrap;html=1;" vertex="1" parent="1">
          <mxGeometry x="537" y="543.76" width="100" height="30" as="geometry" />
        </mxCell>
        <mxCell id="9K0rHRhIe5Y1cG8BqN-u-113" value="numero" style="text;strokeColor=none;fillColor=none;spacingLeft=4;spacingRight=4;overflow=hidden;rotatable=0;points=[[0,0.5],[1,0.5]];portConstraint=eastwest;fontSize=12;whiteSpace=wrap;html=1;" vertex="1" parent="1">
          <mxGeometry x="537" y="563.76" width="100" height="30" as="geometry" />
        </mxCell>
        <mxCell id="9K0rHRhIe5Y1cG8BqN-u-114" value="complemento" style="text;strokeColor=none;fillColor=none;spacingLeft=4;spacingRight=4;overflow=hidden;rotatable=0;points=[[0,0.5],[1,0.5]];portConstraint=eastwest;fontSize=12;whiteSpace=wrap;html=1;" vertex="1" parent="1">
          <mxGeometry x="537" y="583.76" width="100" height="30" as="geometry" />
        </mxCell>
        <mxCell id="9K0rHRhIe5Y1cG8BqN-u-115" value="bairro" style="text;strokeColor=none;fillColor=none;spacingLeft=4;spacingRight=4;overflow=hidden;rotatable=0;points=[[0,0.5],[1,0.5]];portConstraint=eastwest;fontSize=12;whiteSpace=wrap;html=1;" vertex="1" parent="1">
          <mxGeometry x="537" y="603.76" width="100" height="30" as="geometry" />
        </mxCell>
        <mxCell id="9K0rHRhIe5Y1cG8BqN-u-116" value="CEP" style="text;strokeColor=none;fillColor=none;spacingLeft=4;spacingRight=4;overflow=hidden;rotatable=0;points=[[0,0.5],[1,0.5]];portConstraint=eastwest;fontSize=12;whiteSpace=wrap;html=1;" vertex="1" parent="1">
          <mxGeometry x="537" y="623.76" width="150" height="30" as="geometry" />
        </mxCell>
        <mxCell id="9K0rHRhIe5Y1cG8BqN-u-117" value="cidade" style="text;strokeColor=none;fillColor=none;spacingLeft=4;spacingRight=4;overflow=hidden;rotatable=0;points=[[0,0.5],[1,0.5]];portConstraint=eastwest;fontSize=12;whiteSpace=wrap;html=1;" vertex="1" parent="1">
          <mxGeometry x="537" y="643.76" width="100" height="30" as="geometry" />
        </mxCell>
        <mxCell id="9K0rHRhIe5Y1cG8BqN-u-118" value="estado" style="text;strokeColor=none;fillColor=none;spacingLeft=4;spacingRight=4;overflow=hidden;rotatable=0;points=[[0,0.5],[1,0.5]];portConstraint=eastwest;fontSize=12;whiteSpace=wrap;html=1;" vertex="1" parent="1">
          <mxGeometry x="537" y="663.76" width="100" height="30" as="geometry" />
        </mxCell>
        <mxCell id="9K0rHRhIe5Y1cG8BqN-u-120" value="" style="endArrow=oval;html=1;rounded=0;endFill=0;" edge="1" parent="1">
          <mxGeometry relative="1" as="geometry">
            <mxPoint x="514" y="579" as="sourcePoint" />
            <mxPoint x="534" y="578.6199999999999" as="targetPoint" />
          </mxGeometry>
        </mxCell>
        <mxCell id="9K0rHRhIe5Y1cG8BqN-u-121" value="" style="endArrow=oval;html=1;rounded=0;endFill=0;" edge="1" parent="1">
          <mxGeometry relative="1" as="geometry">
            <mxPoint x="514" y="598.91" as="sourcePoint" />
            <mxPoint x="534" y="598.6199999999999" as="targetPoint" />
          </mxGeometry>
        </mxCell>
        <mxCell id="9K0rHRhIe5Y1cG8BqN-u-122" value="" style="endArrow=oval;html=1;rounded=0;endFill=0;" edge="1" parent="1">
          <mxGeometry relative="1" as="geometry">
            <mxPoint x="514" y="618.91" as="sourcePoint" />
            <mxPoint x="534" y="618.6199999999999" as="targetPoint" />
          </mxGeometry>
        </mxCell>
        <mxCell id="9K0rHRhIe5Y1cG8BqN-u-123" value="" style="endArrow=oval;html=1;rounded=0;endFill=0;" edge="1" parent="1">
          <mxGeometry relative="1" as="geometry">
            <mxPoint x="514" y="638.91" as="sourcePoint" />
            <mxPoint x="534" y="638.6199999999999" as="targetPoint" />
          </mxGeometry>
        </mxCell>
        <mxCell id="9K0rHRhIe5Y1cG8BqN-u-124" value="" style="endArrow=oval;html=1;rounded=0;endFill=0;" edge="1" parent="1">
          <mxGeometry relative="1" as="geometry">
            <mxPoint x="514" y="658.91" as="sourcePoint" />
            <mxPoint x="534" y="658.6199999999999" as="targetPoint" />
          </mxGeometry>
        </mxCell>
        <mxCell id="9K0rHRhIe5Y1cG8BqN-u-125" value="" style="endArrow=oval;html=1;rounded=0;endFill=0;" edge="1" parent="1">
          <mxGeometry relative="1" as="geometry">
            <mxPoint x="514" y="678.91" as="sourcePoint" />
            <mxPoint x="534" y="678.6199999999999" as="targetPoint" />
          </mxGeometry>
        </mxCell>
        <mxCell id="9K0rHRhIe5Y1cG8BqN-u-126" value="" style="endArrow=none;html=1;rounded=0;" edge="1" parent="1">
          <mxGeometry width="50" height="50" relative="1" as="geometry">
            <mxPoint x="514" y="678.76" as="sourcePoint" />
            <mxPoint x="514" y="559" as="targetPoint" />
          </mxGeometry>
        </mxCell>
        <mxCell id="9K0rHRhIe5Y1cG8BqN-u-127" value="" style="endArrow=oval;html=1;rounded=0;endFill=0;" edge="1" parent="1">
          <mxGeometry relative="1" as="geometry">
            <mxPoint x="494" y="558.9499999999999" as="sourcePoint" />
            <mxPoint x="534" y="558.5699999999998" as="targetPoint" />
          </mxGeometry>
        </mxCell>
        <mxCell id="9K0rHRhIe5Y1cG8BqN-u-129" value="CPF (PK)" style="text;strokeColor=none;fillColor=none;spacingLeft=4;spacingRight=4;overflow=hidden;rotatable=0;points=[[0,0.5],[1,0.5]];portConstraint=eastwest;fontSize=12;whiteSpace=wrap;html=1;" vertex="1" parent="1">
          <mxGeometry x="153" y="-14.88000000000001" width="100" height="30" as="geometry" />
        </mxCell>
        <mxCell id="9K0rHRhIe5Y1cG8BqN-u-131" value="nome" style="text;strokeColor=none;fillColor=none;spacingLeft=4;spacingRight=4;overflow=hidden;rotatable=0;points=[[0,0.5],[1,0.5]];portConstraint=eastwest;fontSize=12;whiteSpace=wrap;html=1;" vertex="1" parent="1">
          <mxGeometry x="153" y="5.999999999999993" width="100" height="30" as="geometry" />
        </mxCell>
        <mxCell id="9K0rHRhIe5Y1cG8BqN-u-132" value="telefone" style="text;strokeColor=none;fillColor=none;spacingLeft=4;spacingRight=4;overflow=hidden;rotatable=0;points=[[0,0.5],[1,0.5]];portConstraint=eastwest;fontSize=12;whiteSpace=wrap;html=1;" vertex="1" parent="1">
          <mxGeometry x="153" y="25.999999999999993" width="100" height="30" as="geometry" />
        </mxCell>
        <mxCell id="9K0rHRhIe5Y1cG8BqN-u-133" value="email" style="text;strokeColor=none;fillColor=none;spacingLeft=4;spacingRight=4;overflow=hidden;rotatable=0;points=[[0,0.5],[1,0.5]];portConstraint=eastwest;fontSize=12;whiteSpace=wrap;html=1;" vertex="1" parent="1">
          <mxGeometry x="153" y="45.99999999999999" width="150" height="30" as="geometry" />
        </mxCell>
        <mxCell id="9K0rHRhIe5Y1cG8BqN-u-134" value="endereco" style="text;strokeColor=none;fillColor=none;spacingLeft=4;spacingRight=4;overflow=hidden;rotatable=0;points=[[0,0.5],[1,0.5]];portConstraint=eastwest;fontSize=12;whiteSpace=wrap;html=1;" vertex="1" parent="1">
          <mxGeometry x="153" y="66" width="77" height="30" as="geometry" />
        </mxCell>
        <mxCell id="9K0rHRhIe5Y1cG8BqN-u-135" value="" style="endArrow=oval;html=1;rounded=0;endFill=1;" edge="1" parent="1">
          <mxGeometry relative="1" as="geometry">
            <mxPoint x="130" y="0.2599999999999767" as="sourcePoint" />
            <mxPoint x="150" y="-0.03000000000004377" as="targetPoint" />
          </mxGeometry>
        </mxCell>
        <mxCell id="9K0rHRhIe5Y1cG8BqN-u-137" value="" style="endArrow=oval;html=1;rounded=0;endFill=0;" edge="1" parent="1">
          <mxGeometry relative="1" as="geometry">
            <mxPoint x="130" y="21.14999999999997" as="sourcePoint" />
            <mxPoint x="150" y="20.85999999999995" as="targetPoint" />
          </mxGeometry>
        </mxCell>
        <mxCell id="9K0rHRhIe5Y1cG8BqN-u-138" value="" style="endArrow=oval;html=1;rounded=0;endFill=0;" edge="1" parent="1">
          <mxGeometry relative="1" as="geometry">
            <mxPoint x="130" y="41.14999999999997" as="sourcePoint" />
            <mxPoint x="150" y="40.85999999999989" as="targetPoint" />
          </mxGeometry>
        </mxCell>
        <mxCell id="9K0rHRhIe5Y1cG8BqN-u-139" value="" style="endArrow=oval;html=1;rounded=0;endFill=0;" edge="1" parent="1">
          <mxGeometry relative="1" as="geometry">
            <mxPoint x="130" y="61.14999999999997" as="sourcePoint" />
            <mxPoint x="150" y="60.85999999999989" as="targetPoint" />
          </mxGeometry>
        </mxCell>
        <mxCell id="9K0rHRhIe5Y1cG8BqN-u-140" value="" style="endArrow=oval;html=1;rounded=0;endFill=0;" edge="1" parent="1">
          <mxGeometry relative="1" as="geometry">
            <mxPoint x="130" y="81.14999999999996" as="sourcePoint" />
            <mxPoint x="150" y="80.85999999999989" as="targetPoint" />
          </mxGeometry>
        </mxCell>
        <mxCell id="9K0rHRhIe5Y1cG8BqN-u-141" value="" style="endArrow=none;html=1;rounded=0;" edge="1" parent="1">
          <mxGeometry width="50" height="50" relative="1" as="geometry">
            <mxPoint x="130" y="100" as="sourcePoint" />
            <mxPoint x="130" y="-0.6400000000000006" as="targetPoint" />
          </mxGeometry>
        </mxCell>
        <mxCell id="9K0rHRhIe5Y1cG8BqN-u-142" value="rua" style="text;strokeColor=none;fillColor=none;spacingLeft=4;spacingRight=4;overflow=hidden;rotatable=0;points=[[0,0.5],[1,0.5]];portConstraint=eastwest;fontSize=12;whiteSpace=wrap;html=1;" vertex="1" parent="1">
          <mxGeometry x="251" y="-55.000000000000014" width="100" height="30" as="geometry" />
        </mxCell>
        <mxCell id="9K0rHRhIe5Y1cG8BqN-u-143" value="numero" style="text;strokeColor=none;fillColor=none;spacingLeft=4;spacingRight=4;overflow=hidden;rotatable=0;points=[[0,0.5],[1,0.5]];portConstraint=eastwest;fontSize=12;whiteSpace=wrap;html=1;" vertex="1" parent="1">
          <mxGeometry x="251" y="-35.000000000000014" width="100" height="30" as="geometry" />
        </mxCell>
        <mxCell id="9K0rHRhIe5Y1cG8BqN-u-144" value="complemento" style="text;strokeColor=none;fillColor=none;spacingLeft=4;spacingRight=4;overflow=hidden;rotatable=0;points=[[0,0.5],[1,0.5]];portConstraint=eastwest;fontSize=12;whiteSpace=wrap;html=1;" vertex="1" parent="1">
          <mxGeometry x="251" y="-15.000000000000014" width="100" height="30" as="geometry" />
        </mxCell>
        <mxCell id="9K0rHRhIe5Y1cG8BqN-u-145" value="bairro" style="text;strokeColor=none;fillColor=none;spacingLeft=4;spacingRight=4;overflow=hidden;rotatable=0;points=[[0,0.5],[1,0.5]];portConstraint=eastwest;fontSize=12;whiteSpace=wrap;html=1;" vertex="1" parent="1">
          <mxGeometry x="251" y="4.999999999999986" width="100" height="30" as="geometry" />
        </mxCell>
        <mxCell id="9K0rHRhIe5Y1cG8BqN-u-146" value="cidade" style="text;strokeColor=none;fillColor=none;spacingLeft=4;spacingRight=4;overflow=hidden;rotatable=0;points=[[0,0.5],[1,0.5]];portConstraint=eastwest;fontSize=12;whiteSpace=wrap;html=1;" vertex="1" parent="1">
          <mxGeometry x="251" y="44.999999999999986" width="100" height="30" as="geometry" />
        </mxCell>
        <mxCell id="9K0rHRhIe5Y1cG8BqN-u-147" value="estado" style="text;strokeColor=none;fillColor=none;spacingLeft=4;spacingRight=4;overflow=hidden;rotatable=0;points=[[0,0.5],[1,0.5]];portConstraint=eastwest;fontSize=12;whiteSpace=wrap;html=1;" vertex="1" parent="1">
          <mxGeometry x="251" y="64.99999999999999" width="100" height="30" as="geometry" />
        </mxCell>
        <mxCell id="9K0rHRhIe5Y1cG8BqN-u-148" value="" style="endArrow=oval;html=1;rounded=0;endFill=0;" edge="1" parent="1">
          <mxGeometry relative="1" as="geometry">
            <mxPoint x="228" y="-19.760000000000005" as="sourcePoint" />
            <mxPoint x="248" y="-20.140000000000114" as="targetPoint" />
          </mxGeometry>
        </mxCell>
        <mxCell id="9K0rHRhIe5Y1cG8BqN-u-149" value="" style="endArrow=oval;html=1;rounded=0;endFill=0;" edge="1" parent="1">
          <mxGeometry relative="1" as="geometry">
            <mxPoint x="228" y="0.14999999999996305" as="sourcePoint" />
            <mxPoint x="248" y="-0.14000000000011426" as="targetPoint" />
          </mxGeometry>
        </mxCell>
        <mxCell id="9K0rHRhIe5Y1cG8BqN-u-150" value="" style="endArrow=oval;html=1;rounded=0;endFill=0;" edge="1" parent="1">
          <mxGeometry relative="1" as="geometry">
            <mxPoint x="228" y="20.149999999999963" as="sourcePoint" />
            <mxPoint x="248" y="19.859999999999886" as="targetPoint" />
          </mxGeometry>
        </mxCell>
        <mxCell id="9K0rHRhIe5Y1cG8BqN-u-151" value="" style="endArrow=oval;html=1;rounded=0;endFill=0;" edge="1" parent="1">
          <mxGeometry relative="1" as="geometry">
            <mxPoint x="228" y="40.14999999999996" as="sourcePoint" />
            <mxPoint x="248" y="39.859999999999886" as="targetPoint" />
          </mxGeometry>
        </mxCell>
        <mxCell id="9K0rHRhIe5Y1cG8BqN-u-152" value="" style="endArrow=oval;html=1;rounded=0;endFill=0;" edge="1" parent="1">
          <mxGeometry relative="1" as="geometry">
            <mxPoint x="228" y="60.14999999999996" as="sourcePoint" />
            <mxPoint x="248" y="59.859999999999886" as="targetPoint" />
          </mxGeometry>
        </mxCell>
        <mxCell id="9K0rHRhIe5Y1cG8BqN-u-153" value="" style="endArrow=oval;html=1;rounded=0;endFill=0;" edge="1" parent="1">
          <mxGeometry relative="1" as="geometry">
            <mxPoint x="214" y="80" as="sourcePoint" />
            <mxPoint x="248" y="79.85999999999989" as="targetPoint" />
          </mxGeometry>
        </mxCell>
        <mxCell id="9K0rHRhIe5Y1cG8BqN-u-154" value="" style="endArrow=none;html=1;rounded=0;" edge="1" parent="1">
          <mxGeometry width="50" height="50" relative="1" as="geometry">
            <mxPoint x="228" y="79.99999999999999" as="sourcePoint" />
            <mxPoint x="228" y="-39.760000000000005" as="targetPoint" />
          </mxGeometry>
        </mxCell>
        <mxCell id="9K0rHRhIe5Y1cG8BqN-u-155" value="" style="endArrow=oval;html=1;rounded=0;endFill=0;" edge="1" parent="1">
          <mxGeometry relative="1" as="geometry">
            <mxPoint x="228" y="-40" as="sourcePoint" />
            <mxPoint x="248" y="-40.09000000000018" as="targetPoint" />
          </mxGeometry>
        </mxCell>
        <mxCell id="9K0rHRhIe5Y1cG8BqN-u-156" value="CEP" style="text;strokeColor=none;fillColor=none;spacingLeft=4;spacingRight=4;overflow=hidden;rotatable=0;points=[[0,0.5],[1,0.5]];portConstraint=eastwest;fontSize=12;whiteSpace=wrap;html=1;" vertex="1" parent="1">
          <mxGeometry x="251" y="24.36" width="103" height="30" as="geometry" />
        </mxCell>
      </root>
    </mxGraphModel>
  </diagram>
</mxfile>
